#!OML:ASF X:\für Bonn\!DataBase\2005_08_10_Bjorn_Final\c3d\bjorn.ASF
:FULLY-SPECIFIED
:DEGREES
62
root -15.8611 18.9219 -0.555409 1536.19 -89.176 -99.5435
lowerback -6.13981 6.32308 -0.453457
upperback 7.72955 8.85467 -4.3031
thorax 12.48 4.35483 -2.93415
lowerneck -3.67373 -7.99222 1.30563
upperneck 2.12257 -10.8627 3.53923
head 1.40324 -5.3628 0.621541
rclavicle 3.77691e-014 -1.59028e-014
rhumerus 8.43364 5.20591 -83.6577
rradius 80.3986
rwrist -20.2503
rhand -14.4243 11.3035
rfingers 7.12502
rthumb 11.72 -18.3486
lclavicle 3.77691e-014 -1.59028e-014
lhumerus -28.2336 5.64442 83.1725
lradius 16.7032
lwrist -34.8908
lhand -14.6351 -4.81861
lfingers 7.12502
lthumb 11.5167 24.845
rfemur 10.7012 1.27297 14.1685
rtibia 40.2232
rfoot 9.23241 15.8375
rtoes -8.84374
lfemur -23.0123 5.54262 -18.2028
ltibia 33.6794
lfoot -0.269717 -7.27515
ltoes -4.31862
63
root -15.9799 18.9466 -0.53684 1520.95 -89.3468 -84.2389
lowerback -6.10807 6.3201 -0.786679
upperback 7.70113 8.89252 -4.41946
thorax 12.3969 4.34829 -2.87835
lowerneck -3.68438 -8.09777 1.27768
upperneck 2.15082 -11.0062 3.59523
head 1.4211 -5.43325 0.637902
rclavicle -7.91163e-014 2.70347e-014
rhumerus 9.59718 4.76733 -83.1546
rradius 80.701
rwrist -20.167
rhand -15.2898 11.7316
rfingers 7.12502
rthumb 10.8853 -17.9662
lclavicle -7.91163e-014 2.70347e-014
lhumerus -27.8556 4.67321 83.5163
lradius 17.2037
lwrist -33.4284
lhand -14.9435 -4.86318
lfingers 7.12502
lthumb 11.2193 24.8168
rfemur 9.85564 1.09744 13.9349
rtibia 41.5652
rfoot 9.15076 15.6726
rtoes -10.9242
lfemur -22.5929 5.45156 -18.4579
ltibia 33.5499
lfoot -0.670342 -7.39191
ltoes -4.72319
64
root -16.0949 18.9703 -0.518805 1500.99 -89.442 -64.2007
lowerback -6.03732 6.31153 -1.10694
upperback 7.60567 8.91567 -4.52393
thorax 12.2109 4.33763 -2.8257
lowerneck -3.48997 -8.20786 1.15656
upperneck 2.12546 -11.146 3.70474
head 1.39584 -5.50506 0.695499
rclavicle -6.99722e-014 -1.11319e-014
rhumerus 10.6325 4.36268 -82.6041
rradius 80.9996
rwrist -20.1768
rhand -16.2336 12.2007
rfingers 7.12502
rthumb 9.97476 -17.5429
lclavicle -6.99722e-014 -1.11319e-014
lhumerus -27.6795 3.62054 83.8804
lradius 17.8079
lwrist -31.8082
lhand -15.3019 -4.91179
lfingers 7.12502
lthumb 10.8735 24.7867
rfemur 8.98849 0.898451 13.6994
rtibia 42.8467
rfoot 8.65395 15.5821
rtoes -13.1178
lfemur -22.1883 5.39703 -18.6915
ltibia 33.3939
lfoot -1.03849 -7.51811
ltoes -5.29754
65
root -16.2071 18.9936 -0.501687 1481.97 -89.4365 -45.1204
lowerback -5.93307 6.3241 -1.36443
upperback 7.48644 8.956 -4.61495
thorax 11.9864 4.3418 -2.79367
lowerneck -3.17279 -8.31244 1.04872
upperneck 2.05688 -11.2733 3.78422
head 1.33326 -5.57338 0.749155
rclavicle -3.85642e-014 3.97569e-014
rhumerus 11.6311 3.85563 -82.0609
rradius 81.2538
rwrist -20.2629
rhand -17.1206 12.644
rfingers 7.12502
rthumb 9.11893 -17.1389
lclavicle -3.85642e-014 3.97569e-014
lhumerus -27.6029 2.52249 84.2241
lradius 18.4644
lwrist -30.1848
lhand -15.762 -5.03403
lfingers 7.12502
lthumb 10.4298 24.6873
rfemur 8.16175 0.724467 13.5399
rtibia 44.0413
rfoot 7.82665 15.4931
rtoes -15.1879
lfemur -21.764 5.38537 -18.8724
ltibia 33.2236
lfoot -1.38969 -7.66471
ltoes -5.7771
66
root -16.3176 19.017 -0.484958 1468.73 -89.365 -31.8211
lowerback -5.84218 6.34374 -1.55781
upperback 7.37586 8.99991 -4.71601
thorax 11.7937 4.35388 -2.8048
lowerneck -2.93651 -8.43257 0.910623
upperneck 2.05493 -11.4282 3.92734
head 1.31283 -5.65264 0.820797
rclavicle 7.95139e-016 -3.97569e-014
rhumerus 12.6669 3.27017 -81.5565
rradius 81.4394
rwrist -20.3284
rhand -18.0951 13.0916
rfingers 7.12502
rthumb 8.17851 -16.7301
lclavicle 7.95139e-016 -3.97569e-014
lhumerus -27.5409 1.5153 84.5015
lradius 19.1611
lwrist -28.6348
lhand -16.425 -5.22947
lfingers 7.12502
lthumb 9.79011 24.523
rfemur 7.34764 0.562297 13.434
rtibia 45.1132
rfoot 6.81302 15.4146
rtoes -17.026
lfemur -21.3582 5.33758 -18.9988
ltibia 33.0637
lfoot -1.73139 -7.76606
ltoes -6.10542
67
root -16.4243 19.0395 -0.4696 1458.36 -89.2548 -21.3801
lowerback -5.72851 6.35477 -1.77024
upperback 7.26572 9.02984 -4.79569
thorax 11.5798 4.35723 -2.78748
lowerneck -2.72348 -8.55046 0.750654
upperneck 2.04059 -11.5776 4.0239
head 1.2911 -5.72996 0.881346
rclavicle -2.50469e-014 -1.74931e-014
rhumerus 13.6913 2.67271 -81.0158
rradius 81.6214
rwrist -20.4599
rhand -19.1498 13.5438
rfingers 7.12502
rthumb 7.16057 -16.315
lclavicle -2.50469e-014 -1.74931e-014
lhumerus -27.5083 0.696683 84.7362
lradius 19.8643
lwrist -27.2254
lhand -17.113 -5.48932
lfingers 7.12502
lthumb 9.12628 24.2932
rfemur 6.55704 0.383976 13.3486
rtibia 46.0344
rfoot 5.73257 15.3129
rtoes -18.4082
lfemur -20.9814 5.30125 -19.1202
ltibia 32.9177
lfoot -2.02727 -7.87305
ltoes -6.28662
68
root -16.5288 19.0582 -0.454356 1454.18 -89.1487 -17.1343
lowerback -5.63703 6.38317 -1.90127
upperback 7.18165 9.07739 -4.88374
thorax 11.4262 4.37571 -2.81687
lowerneck -2.61885 -8.67266 0.606404
upperneck 2.06619 -11.7387 4.1341
head 1.30117 -5.81083 0.937319
rclavicle 1.15295e-014 7.95139e-015
rhumerus 14.7925 2.02272 -80.5139
rradius 81.7389
rwrist -20.6069
rhand -20.2404 13.9666
rfingers 7.12502
rthumb 6.1077 -15.9254
lclavicle 1.15295e-014 7.95139e-015
lhumerus -27.4013 -0.0645223 84.9099
lradius 20.5152
lwrist -25.7449
lhand -17.8638 -5.95119
lfingers 7.12502
lthumb 8.4018 23.8617
rfemur 5.79174 0.21746 13.3167
rtibia 46.7792
rfoot 4.76854 15.1604
rtoes -18.7637
lfemur -20.618 5.29996 -19.1964
ltibia 32.7888
lfoot -2.32231 -7.99401
ltoes -6.56583
69
root -16.6315 19.0751 -0.441454 1452.09 -89.0333 -14.9789
lowerback -5.5896 6.4052 -2.03476
upperback 7.13216 9.11897 -4.95302
thorax 11.3347 4.38889 -2.8199
lowerneck -2.56285 -8.77486 0.436066
upperneck 2.05813 -11.8733 4.2769
head 1.31275 -5.87841 1.00641
rclavicle 7.4743e-014 -5.725e-014
rhumerus 15.9454 1.35771 -80.0138
rradius 81.8036
rwrist -20.748
rhand -21.3116 14.4578
rfingers 7.12502
rthumb 5.07344 -15.4614
lclavicle 7.4743e-014 -5.725e-014
lhumerus -27.2338 -0.64186 85.0389
lradius 21.1093
lwrist -24.409
lhand -18.6589 -6.4686
lfingers 7.12502
lthumb 7.63438 23.3736
rfemur 5.06112 0.0548341 13.3317
rtibia 47.3447
rfoot 3.99413 14.8898
rtoes -17.455
lfemur -20.2741 5.31352 -19.2366
ltibia 32.6669
lfoot -2.53822 -8.11282
ltoes -6.38256
70
root -16.7322 19.0932 -0.427894 1451.4 -88.9021 -14.2348
lowerback -5.53754 6.42317 -2.12595
upperback 7.09757 9.15091 -5.02007
thorax 11.2636 4.40071 -2.84482
lowerneck -2.58459 -8.87537 0.268752
upperneck 2.12444 -12.0102 4.41078
head 1.36105 -5.94473 1.06667
rclavicle 3.97569e-014 -4.92986e-014
rhumerus 17.1147 0.68167 -79.5223
rradius 81.8183
rwrist -20.9122
rhand -22.4264 14.8895
rfingers 7.12502
rthumb 3.997 -15.0528
lclavicle 3.97569e-014 -4.92986e-014
lhumerus -27.0341 -1.07157 85.1112
lradius 21.6458
lwrist -23.2109
lhand -19.4954 -7.05745
lfingers 7.12502
lthumb 6.82697 22.8125
rfemur 4.36568 -0.116089 13.3768
rtibia 47.7469
rfoot 3.33594 14.5564
rtoes -15.4862
lfemur -19.9126 5.28255 -19.2523
ltibia 32.5242
lfoot -2.76471 -8.19989
ltoes -6.29431
71
root -16.8314 19.1135 -0.415095 1451.01 -88.7796 -13.7754
lowerback -5.51802 6.45122 -2.20175
upperback 7.0738 9.19893 -5.10804
thorax 11.2323 4.42164 -2.89408
lowerneck -2.65226 -8.97041 0.191937
upperneck 2.17602 -12.1425 4.51622
head 1.40484 -6.00828 1.10246
rclavicle 8.98507e-014 -9.38264e-014
rhumerus 18.332 -0.0899776 -79.0799
rradius 81.8109
rwrist -21.1033
rhand -23.5977 15.2692
rfingers 7.12502
rthumb 2.86589 -14.6913
lclavicle 8.98507e-014 -9.38264e-014
lhumerus -26.748 -1.51647 85.1376
lradius 22.1143
lwrist -21.9569
lhand -20.2447 -7.61843
lfingers 7.12502
lthumb 6.1036 22.2737
rfemur 3.65874 -0.289896 13.4302
rtibia 48.003
rfoot 2.61001 14.2226
rtoes -13.8896
lfemur -19.5603 5.27059 -19.2649
ltibia 32.3375
lfoot -2.95197 -8.31191
ltoes -6.18088
72
root -16.9298 19.1358 -0.402526 1451.32 -88.6428 -14.0052
lowerback -5.49344 6.48104 -2.27162
upperback 7.03964 9.24691 -5.18037
thorax 11.184 4.44286 -2.93067
lowerneck -2.69852 -9.067 0.10778
upperneck 2.21557 -12.2767 4.64158
head 1.4435 -6.07308 1.14664
rclavicle -3.10104e-014 1.19271e-013
rhumerus 19.5154 -0.896507 -78.6298
rradius 81.7342
rwrist -21.1231
rhand -25.0067 15.5728
rfingers 7.12502
rthumb 1.50514 -14.4016
lclavicle -3.10104e-014 1.19271e-013
lhumerus -26.473 -1.92481 85.1711
lradius 22.5322
lwrist -20.7318
lhand -20.901 -8.07015
lfingers 7.12502
lthumb 5.46995 21.8393
rfemur 2.96032 -0.479689 13.5121
rtibia 48.1294
rfoot 1.72809 13.9194
rtoes -13.3009
lfemur -19.1814 5.26597 -19.2602
ltibia 32.0864
lfoot -3.0952 -8.44034
ltoes -5.89958
73
root -17.0265 19.161 -0.390475 1452.22 -88.4779 -14.8074
lowerback -5.48805 6.49567 -2.31467
upperback 7.00718 9.27335 -5.25261
thorax 11.1525 4.45573 -2.98278
lowerneck -2.7701 -9.15901 0.0449289
upperneck 2.27484 -12.4062 4.74795
head 1.49022 -6.13482 1.17999
rclavicle 2.50469e-014 1.90833e-014
rhumerus 20.7224 -1.69377 -78.194
rradius 81.552
rwrist -21.1042
rhand -26.4706 15.912
rfingers 7.12502
rthumb 0.0912577 -14.0677
lclavicle 2.50469e-014 1.90833e-014
lhumerus -26.1513 -2.27086 85.1774
lradius 22.8899
lwrist -19.61
lhand -21.5254 -8.41312
lfingers 7.12502
lthumb 4.86709 21.511
rfemur 2.25226 -0.685968 13.6277
rtibia 48.1475
rfoot 0.869615 13.6063
rtoes -12.6629
lfemur -18.8006 5.26082 -19.2292
ltibia 31.7767
lfoot -3.21832 -8.59043
ltoes -5.81367
74
root -17.1224 19.1862 -0.377865 1452.22 -88.3181 -14.7442
lowerback -5.434 6.51766 -2.36255
upperback 6.95462 9.30638 -5.33956
thorax 11.0712 4.47314 -3.0531
lowerneck -2.79132 -9.25236 0.051476
upperneck 2.36639 -12.5391 4.80844
head 1.5308 -6.19839 1.19006
rclavicle -5.68524e-014 5.725e-014
rhumerus 21.8639 -2.51224 -77.7624
rradius 81.2695
rwrist -21.0454
rhand -27.7467 16.2838
rfingers 7.12502
rthumb -1.14131 -13.6929
lclavicle -5.68524e-014 5.725e-014
lhumerus -25.884 -2.57889 85.155
lradius 23.2513
lwrist -18.5257
lhand -22.0776 -8.73933
lfingers 7.12502
lthumb 4.33381 21.1963
rfemur 1.60119 -0.87965 13.7161
rtibia 48.0574
rfoot 7.2922e-005 13.3933
rtoes -11.8992
lfemur -18.3634 5.25964 -19.2221
ltibia 31.4186
lfoot -3.2979 -8.73841
ltoes -5.65136
